<svg width="38" height="38" viewBox="0 0 38 38" fill="none" xmlns="http://www.w3.org/2000/svg">
<path fill-rule="evenodd" clip-rule="evenodd" d="M19.4 11C17.1944 11 15.4 12.7944 15.4 15V17.4H14.6C13.7176 17.4 13 18.1176 13 19V25.4C13 26.2824 13.7176 27 14.6 27H24.2C25.0824 27 25.8 26.2824 25.8 25.4V19C25.8 18.1176 25.0824 17.4 24.2 17.4H23.4V15C23.4 12.7944 21.6056 11 19.4 11ZM24.2 19L24.2016 25.4H14.6V19H24.2ZM17 17.4V15C17 13.6768 18.0768 12.6 19.4 12.6C20.7232 12.6 21.8 13.6768 21.8 15V17.4H17Z" fill="#7A7D80"/>
</svg>
